<svg width="90" height="90" viewBox="0 0 90 90" fill="none" xmlns="http://www.w3.org/2000/svg">
<rect width="90" height="90" fill="#180EA6"/>
<path d="M30.0011 10.6389C30.0011 12.3868 30.0011 13.1899 30.0011 15.0677C30.0011 16.733 30.0011 17.2821 30.0011 18.6108C29.6964 18.6108 6.50908 13.2962 9.6837 29.24C9.6837 28.7971 9.6837 29.5943 9.6837 29.24H3.8424C3.60537 29.24 3.33448 29.24 3.33448 29.24C3.33448 29.24 3.33448 28.7998 3.33448 28.6345L3.33448 3.55276C3.33448 3.22207 3.33448 3.55276 3.33447 2.66699L16.6678 2.667C19.3429 2.667 19.9694 2.66699 23.017 2.667C26.0646 2.667 28.0964 2.667 30.0011 2.667C30.0011 4.96999 30.0011 8.84374 30.0011 10.6389Z" fill="white"/>
<path d="M21.9675 10.5841C21.9675 14.0726 19.1395 16.9006 15.651 16.9006C12.1625 16.9006 9.33447 14.0726 9.33447 10.5841C9.33447 7.09558 12.1625 4.26758 15.651 4.26758C19.1395 4.26758 21.9675 7.09558 21.9675 10.5841Z" fill="#180EA6"/>
<path d="M44.9853 29.3337C42.3291 29.3337 34.3605 29.3337 31.7043 29.3337C31.7043 28.0991 31.7043 26.8645 31.7043 24.3954C31.7043 22.5435 31.6337 19.0291 31.6337 16.3954C31.6337 13.6629 31.557 10.9778 31.6337 8.96326C31.7043 7.11141 31.7043 4.64227 31.7043 2.79042C34.3605 2.66699 42.471 2.66699 45.1272 2.66699C47.8188 2.66699 55.6101 2.66699 58.2663 2.79042C58.2663 4.02499 58.2663 6.83978 58.2663 8.96326C58.2663 11.0868 58.2663 13.704 58.2663 16.3707C58.2663 19.0044 58.2663 21.309 58.2663 23.1608C58.2663 25.63 58.2663 27.4818 58.2663 29.3337C56.2741 29.3337 47.6769 29.3337 44.9853 29.3337Z" fill="white"/>
<ellipse cx="44.8661" cy="16.0673" rx="6.46667" ry="8.6" fill="#180EA6"/>
<path d="M73.2529 57.8649C70.5967 57.8649 62.6281 57.8649 59.9719 57.8649C59.9719 56.6303 59.9719 55.3958 59.9719 52.9266C59.9719 51.0748 59.9013 47.5604 59.9013 44.9266C59.9013 42.1941 59.8245 39.5091 59.9013 37.4945C59.9719 35.6427 59.9719 33.1735 59.9719 31.3217C62.6281 31.1982 70.7386 31.1982 73.3948 31.1982C76.0864 31.1982 83.8777 31.1982 86.5339 31.3217C86.5339 32.5562 86.5339 35.371 86.5339 37.4945C86.5339 39.618 86.5339 42.2353 86.5339 44.9019C86.5339 47.5357 86.5339 49.8402 86.5339 51.6921C86.5339 54.1612 86.5339 56.0131 86.5339 57.8649C84.5417 57.8649 75.9445 57.8649 73.2529 57.8649Z" fill="white"/>
<ellipse cx="73.1337" cy="44.5985" rx="6.46667" ry="8.6" fill="#180EA6"/>
<path d="M73.2529 86.3991C70.5967 86.3991 62.6281 86.3991 59.9719 86.3991C59.9719 85.1645 59.9719 83.9299 59.9719 81.4608C59.9719 79.609 59.9013 76.0946 59.9013 73.4608C59.9013 70.7283 59.8245 68.0433 59.9013 66.0287C59.9719 64.1768 59.9719 61.7077 59.9719 59.8558C62.6281 59.7324 70.7386 59.7324 73.3948 59.7324C76.0864 59.7324 83.8777 59.7324 86.5339 59.8558C86.5339 61.0904 86.5339 63.9052 86.5339 66.0287C86.5339 68.1522 86.5339 70.7694 86.5339 73.4361C86.5339 76.0699 86.5339 78.3744 86.5339 80.2262C86.5339 82.6954 86.5339 84.5472 86.5339 86.3991C84.5417 86.3991 75.9445 86.3991 73.2529 86.3991Z" fill="white"/>
<ellipse cx="73.1337" cy="73.1327" rx="6.46667" ry="8.6" fill="#180EA6"/>
<path d="M49.2188 56.25C50.1563 56.25 50.625 56.4143 50.625 56.7428V83.7306C50.625 83.9833 50.4687 84.1602 50.1562 84.2613C49.8437 84.3371 49.2969 84.375 48.5156 84.375H41.1328C40.4297 84.375 39.9609 84.3371 39.7265 84.2613C39.4922 84.1855 39.375 84.0465 39.375 83.8443V56.7807C39.375 56.4269 39.8437 56.25 40.7812 56.25H49.2188Z" fill="white"/>
<path d="M5.62501 56.7807C5.62501 56.4269 5.62501 56.7238 5.62504 56.25H11.444C11.6864 56.25 10.1711 56.25 11.6864 56.25L12.4441 56.25C11.6864 57.1976 1.92753 86.0996 33.75 81.5701C33.75 82.9536 33.75 81.6964 33.75 81.9491V83.9581C33.75 84.0844 33.75 84.2044 33.75 84.375C33.2435 84.375 33.2651 84.375 33.0226 84.375H6.4736C6.15033 84.375 6.4736 84.375 5.625 84.375C5.625 83.7306 5.62501 84.0212 5.62501 83.8443V56.7807Z" fill="white"/>
<path d="M33.75 33.75C34.3581 33.75 33.9446 33.75 34.3338 33.75H55.7392C56.0635 33.75 56.25 33.75 56.25 33.75L56.2257 35.6301C56.2257 35.8726 56.25 36.7823 56.2257 37.1614C39.8311 36.0243 39.223 38.6776 39.223 39.0566C39.223 39.0566 39.223 43.6051 52.4797 43.2261C52.4797 43.9634 52.4797 43.403 52.4797 43.6051V46.2584V46.3342C51.2847 46.3342 52.3014 46.3342 51.9446 46.3342C32.5338 45.1213 39.8311 55.6031 39.8311 55.8255V56.25C38.8389 56.25 38.1933 56.25 37.7392 56.25H34.4311C34.1716 56.25 34.079 56.25 33.75 56.25C33.75 55.7345 33.75 55.9872 33.75 55.8255L33.75 33.75Z" fill="white"/>
<path d="M5.625 34.0836C5.625 33.9825 5.62501 33.75 5.62501 33.75C5.62501 33.75 5.99167 33.75 6.225 33.75H33.125C33.325 33.75 33.75 33.75 33.75 33.75C33.75 34.129 33.75 34.028 33.75 34.129V36.0243C33.75 36.7823 33.75 36.7823 33.75 37.4076C33.75 38.2264 17.5 31.0967 23.75 56.25C22.9629 56.25 22.225 56.25 21.825 56.25H18.225C17.825 56.25 17.6411 56.25 16.875 56.25C23.75 32.2338 7.22396 37.4076 5.62502 37.4076C5.625 37.1614 5.62501 36.4033 5.625 35.9636V34.0836Z" fill="white"/>
<path d="M86.5339 29.3337C86.3458 29.3337 85.7221 29.3337 85.4917 29.3337H80.8507C71.5933 4.0147 64.3272 29.3337 63.7676 29.3337H60.5584C60.2951 29.3337 60.6546 29.3337 59.8672 29.3337C59.8672 29.1719 59.8672 29.0102 59.8672 28.8665V2.66699C60.4843 2.66699 60.0647 2.66699 60.4597 2.66699H74.2347C78.1187 2.66699 83.8131 2.667 86.4051 2.667C86.4051 4.91317 86.4051 6.97756 86.4051 9.40554C86.4051 10.7712 86.4051 15.5511 86.4051 16.8988C85.1708 16.8988 75.9134 17.4918 86.5339 29.3337Z" fill="white"/>
<path d="M79.1662 10.4508C79.1662 13.9393 76.3382 16.7673 72.8497 16.7673C69.3612 16.7673 66.5332 13.9393 66.5332 10.4508C66.5332 6.96228 69.3612 4.13428 72.8497 4.13428C76.3382 4.13428 79.1662 6.96228 79.1662 10.4508Z" fill="#180EA6"/>
</svg>
