<svg width="16" height="16" viewBox="0 0 16 16" fill="none" xmlns="http://www.w3.org/2000/svg">
<rect width="16" height="16" fill="#180EA6"/>
<path d="M5.33351 1.89135C5.33351 2.20209 5.33351 2.34486 5.33351 2.6787C5.33351 2.97474 5.33351 3.07237 5.33351 3.30857C5.27933 3.30857 1.15715 2.36376 1.72152 5.19821C1.72152 5.11947 1.72152 5.2612 1.72152 5.19821H0.683072C0.640932 5.19821 0.592776 5.19821 0.592776 5.19821C0.592776 5.19821 0.592775 5.11996 0.592775 5.09056L0.592775 0.631591C0.592775 0.572802 0.592775 0.631591 0.592773 0.474121L2.96314 0.474122C3.43872 0.474122 3.55009 0.47412 4.09189 0.474122C4.63369 0.474122 4.99489 0.474122 5.33351 0.474122C5.33351 0.883543 5.33351 1.57221 5.33351 1.89135Z" fill="white"/>
<path d="M3.90554 1.88173C3.90554 2.50191 3.40278 3.00466 2.7826 3.00466C2.16242 3.00466 1.65967 2.50191 1.65967 1.88173C1.65967 1.26154 2.16242 0.758789 2.7826 0.758789C3.40278 0.758789 3.90554 1.26154 3.90554 1.88173Z" fill="#180EA6"/>
<path d="M7.99735 5.21486C7.52514 5.21486 6.1085 5.21486 5.63629 5.21486C5.63629 4.99538 5.63629 4.7759 5.63629 4.33695C5.63629 4.00773 5.62374 3.38295 5.62374 2.91473C5.62374 2.42895 5.61009 1.95161 5.62374 1.59346C5.63629 1.26424 5.63629 0.825282 5.63629 0.496064C6.1085 0.47412 7.55037 0.474121 8.02258 0.474121C8.50109 0.474121 9.8862 0.474121 10.3584 0.496064C10.3584 0.715543 10.3584 1.21595 10.3584 1.59346C10.3584 1.97097 10.3584 2.43626 10.3584 2.91033C10.3584 3.37855 10.3584 3.78825 10.3584 4.11747C10.3584 4.55643 10.3584 4.88564 10.3584 5.21486C10.0043 5.21486 8.47586 5.21486 7.99735 5.21486Z" fill="white"/>
<ellipse cx="7.97629" cy="2.85653" rx="1.14963" ry="1.52889" fill="#180EA6"/>
<path d="M13.0227 10.2871C12.5505 10.2871 11.1339 10.2871 10.6617 10.2871C10.6617 10.0676 10.6617 9.84817 10.6617 9.40921C10.6617 9.07999 10.6491 8.45521 10.6491 7.98699C10.6491 7.50121 10.6355 7.02387 10.6491 6.66572C10.6617 6.33651 10.6617 5.89755 10.6617 5.56833C11.1339 5.54639 12.5758 5.54639 13.048 5.54639C13.5265 5.54639 14.9116 5.54639 15.3838 5.56833C15.3838 5.78781 15.3838 6.28822 15.3838 6.66572C15.3838 7.04323 15.3838 7.50852 15.3838 7.9826C15.3838 8.45082 15.3838 8.86051 15.3838 9.18973C15.3838 9.62869 15.3838 9.95791 15.3838 10.2871C15.0296 10.2871 13.5013 10.2871 13.0227 10.2871Z" fill="white"/>
<ellipse cx="13.0017" cy="7.92879" rx="1.14963" ry="1.52889" fill="#180EA6"/>
<path d="M13.0227 15.3599C12.5505 15.3599 11.1339 15.3599 10.6617 15.3599C10.6617 15.1404 10.6617 14.9209 10.6617 14.482C10.6617 14.1527 10.6491 13.528 10.6491 13.0597C10.6491 12.574 10.6355 12.0966 10.6491 11.7385C10.6617 11.4093 10.6617 10.9703 10.6617 10.6411C11.1339 10.6191 12.5758 10.6191 13.048 10.6191C13.5265 10.6191 14.9116 10.6191 15.3838 10.6411C15.3838 10.8606 15.3838 11.361 15.3838 11.7385C15.3838 12.116 15.3838 12.5813 15.3838 13.0554C15.3838 13.5236 15.3838 13.9333 15.3838 14.2625C15.3838 14.7014 15.3838 15.0307 15.3838 15.3599C15.0296 15.3599 13.5013 15.3599 13.0227 15.3599Z" fill="white"/>
<ellipse cx="13.0017" cy="13.0015" rx="1.14963" ry="1.52889" fill="#180EA6"/>
<path d="M8.75 10C8.91667 10 9 10.0292 9 10.0876V14.8854C9 14.9304 8.97222 14.9618 8.91666 14.9798C8.86111 14.9933 8.76389 15 8.625 15H7.3125C7.1875 15 7.10416 14.9933 7.0625 14.9798C7.02083 14.9663 7 14.9416 7 14.9057V10.0943C7 10.0314 7.08333 10 7.25 10H8.75Z" fill="white"/>
<path d="M1 10.0943C1 10.0314 1 10.0842 1.00001 10H2.03448C2.07759 10 1.80819 10 2.07759 10L2.21228 10C2.07759 10.1685 0.342673 15.3066 6 14.5013C6 14.7473 6 14.5238 6 14.5687V14.9259C6 14.9483 6 14.9697 6 15C5.90995 15 5.91379 15 5.87069 15H1.15086C1.09339 15 1.15086 15 1 15C1 14.8854 1 14.9371 1 14.9057V10.0943Z" fill="white"/>
<path d="M6 6C6.10811 6 6.0346 6 6.10379 6H9.90919C9.96685 6 10 6 10 6L9.99568 6.33423C9.99568 6.37736 10 6.53908 9.99568 6.60647C7.08108 6.40431 6.97297 6.87601 6.97297 6.9434C6.97297 6.9434 6.97297 7.75202 9.32973 7.68464C9.32973 7.81572 9.32973 7.71608 9.32973 7.75202V8.22372V8.2372C9.11727 8.2372 9.29802 8.2372 9.2346 8.2372C5.78378 8.02156 7.08108 9.885 7.08108 9.92453V10C6.90469 10 6.78991 10 6.70919 10H6.12108C6.07496 10 6.05849 10 6 10C6 9.90836 6 9.95328 6 9.92453L6 6Z" fill="white"/>
<path d="M1 6.0593C1 6.04133 1 6 1 6C1 6 1.06519 6 1.10667 6H5.88889C5.92444 6 6 6 6 6C6 6.06739 6 6.04942 6 6.06739V6.40431C6 6.53908 6 6.53908 6 6.65025C6 6.7958 3.11111 5.5283 4.22222 10C4.08229 10 3.95111 10 3.88 10H3.24C3.16889 10 3.1362 10 3 10C4.22222 5.73046 1.28426 6.65025 1 6.65025C1 6.60647 1 6.4717 1 6.39353V6.0593Z" fill="white"/>
<path d="M15.3838 5.21486C15.3504 5.21486 15.2395 5.21486 15.1985 5.21486H14.3735C12.7277 0.713713 11.436 5.21486 11.3365 5.21486H10.7659C10.7191 5.21486 10.7831 5.21486 10.6431 5.21486C10.6431 5.18611 10.6431 5.15736 10.6431 5.1318V0.474121C10.7528 0.474121 10.6782 0.474121 10.7484 0.474121H13.1973C13.8878 0.474121 14.9001 0.474123 15.3609 0.474122C15.3609 0.873442 15.3609 1.24044 15.3609 1.67208C15.3609 1.91487 15.3609 2.76463 15.3609 3.00422C15.1415 3.00422 13.4957 3.10964 15.3838 5.21486Z" fill="white"/>
<path d="M14.074 1.8578C14.074 2.47798 13.5712 2.98074 12.9511 2.98074C12.3309 2.98074 11.8281 2.47798 11.8281 1.8578C11.8281 1.23762 12.3309 0.734863 12.9511 0.734863C13.5712 0.734863 14.074 1.23762 14.074 1.8578Z" fill="#180EA6"/>
</svg>
